<?xml version="1.0" encoding="UTF-8"?>
<svg id="Layer_1" xmlns="http://www.w3.org/2000/svg" version="1.1" viewBox="0 0 2048 2048">
  <!-- Generator: Adobe Illustrator 30.0.0, SVG Export Plug-In . SVG Version: 2.1.1 Build 123)  -->
  <defs>
    <style>
      .st0 {
        fill: #fff;
      }
    </style>
  </defs>
  <path class="st0" d="M2048,0v2048H0V0h2048ZM1474.99,729.01c-43.62-2.71-86.09-18.88-125.35-37.15-48.05-22.37-92.88-52.59-142.39-71.61-108.29-41.6-249.26-47.44-355.61,2.89-25.12,11.89-45.32,28.98-68.72,43.28-48.34,29.51-106.01,55.77-162.56,63.44-21.37,2.9-42.85,3.07-64.37,3.64,72.51,8.87,151.27,1.09,217.69-30.32,25.57-12.09,46.4-30.13,71.3-42.7,105.3-53.13,252.58-47.82,361.27-7.23,44.53,16.63,83.95,42.33,129.75,56.25,24.5,7.44,51.22,13.06,76.64,16.36,18.52,2.4,40.31,4.9,58.87,4.14,1.21-.05,3.72.76,3.48-.99ZM1542.99,768.01c-59.03,2.94-115.62-4.81-171.76-22.74-49.65-15.86-89.82-39.29-136.56-59.44-108.21-46.65-275.27-53.46-384.35-7-29.5,12.56-53.87,33.02-83.65,46.35-58.72,26.28-123.75,41.24-188.13,42.87l-50.55-.54c81.49,11.72,166.26,15.54,244.26-14.75,32.24-12.52,57.23-33.59,90.23-45.77,108.47-40.03,259.59-31.97,366.77,9.27,28.32,10.9,55.14,25.29,83.98,35.02,65.03,21.94,128,25.93,196.26,20.72l33.5-3.98ZM1525,807.01c-78.06,5.93-156.19-11.13-227.96-40.54-23.18-9.5-45.27-21.49-68.79-30.21-103.86-38.54-268.28-43.8-372.77-6.27-27.47,9.87-50.52,26.34-77.51,37.49-65.9,27.22-138.16,40.43-209.51,39.57-2.13-.03-24.47-2.51-24.47-.54,75.45,13.17,152.62,16.67,226.53-6.48,28.22-8.84,50.35-24.52,77.23-34.77,100.56-38.31,256.76-34.34,359.24-3.75,36.81,10.99,70.56,29.71,107.24,40.76,57.99,17.47,117.29,19.54,177.12,10.59l33.64-5.85ZM1542,845.01c-73.18,6.01-147.59-1.12-217.99-21.51-42.09-12.19-79.98-32.53-122.58-43.42-91.93-23.49-226.87-26.19-319.43-5.59-43.87,9.76-74.86,31.01-116.22,43.78-62.12,19.18-138.32,29.41-203.31,27.77-2.14-.05-23.47-2.48-23.47-.54,68.63,10.38,137.19,16.89,206.2,5.19,48.74-8.27,83.12-31.7,129.63-42.37,98.75-22.66,252.07-19.15,349.19,10.19,27.94,8.44,54.42,20.68,82.79,28.21,64.01,16.99,129.52,15.03,194.57,5.14l40.64-6.85ZM1531.99,885.01c-64.25,2.81-130.18-.11-193.18-13.32-52.83-11.08-100.73-33.51-153.79-43.21-90.57-16.56-230.52-18.3-320.21,1.83-35.1,7.88-64.62,24.94-99.99,33.01-49.82,11.36-101.39,14.88-152.28,17.72l-94.55-1.54c38.85,4.31,77.5,11.41,116.52,14.49,51.78,4.09,125.08,3.23,174.27-13.72,44.84-15.45,76.68-23.43,124.74-27.26,74.02-5.91,161.36-5.32,234.85,5.13,54.35,7.73,103.68,27.69,158.28,34.72,54.85,7.05,108.04,3.64,162.85-1.87l42.5-5.98ZM1545.99,921.01c-5.59-.84-11.12.88-16.45,1.04-57.88,1.75-123.53-1.88-180.91-9.19-68.46-8.72-131.38-31.35-200.15-36.85-74.74-5.98-169.37-6.68-243.98,0-37.77,3.38-63.06,11.33-98.51,21.49-53.37,15.29-126.66,19.26-182.54,21.46-2.37.09-4.55,1.01-6.92,1.08l-83.55.46c45.01,5.79,90.1,11.61,135.5,13.51,40.63,1.7,82.53,2.37,122.84-4.18,18.92-3.07,36.78-9.76,55.64-13.36,68.48-13.08,146.82-11.73,216.48-10.44,34.23.63,67.87.67,102.04,3.96,65.34,6.29,127.79,27.96,193.96,28.04h27.09s59.95-4.05,59.95-4.05l99.5-12.99ZM1545.99,960.01l-102.54-.97c-75.52.34-147.07-11.52-221.13-22.87-87.47-13.41-189.06-10.64-277.79-8.13-33.66.95-66.54,1.78-99.87,7.13-22.02,3.53-42.92,9.71-65.29,12.71-45.14,6.05-92.46,7.82-137.91,9.09-2.37.07-4.55,1.03-6.92,1.08l-117.55-.54c42.15,4.47,84.28,10.62,126.51,14.5,47.21,4.33,94.66,6.66,141.99,2.99,26.21-2.03,51.76-8.65,78.02-10.98,82.61-7.33,173.74-5.17,256.95-2.97,29.01.77,58.11,1.25,87.04,3.96s58.51,8.93,88.02,10.98c51.25,3.56,102.9-.51,153.98-4.99l96.5-10.99ZM1525.99,998.01l-135.54-1.97c-89.26-3.21-177.57-13.32-267-15-95.17-1.79-198.54-5.03-292.95,3.96-53.52,5.1-102.08,8.36-156.05,9.95-2.37.07-4.55,1.03-6.92,1.08l-125.55,1.46c29.73,4.61,59.55,9.38,89.52,12.49,69.04,7.17,131.83,7.09,200.95,4.97,83.17-2.55,166.75-3.74,250.09-3.01,131.07,1.16,262.34,14.03,392.81-6.09l50.64-7.85ZM1548.99,1034.01l-1032.01-.51c76.32,6.75,151.99,19.07,228.52,24.49,60.05,4.25,119.79,5.1,180.03,5.97,169.98,2.44,339.88,1.79,508.95-15.96l114.5-13.99ZM1550.99,1075.01c-6.57.84-13.16-.85-19.45-1.06-67.5-2.28-139.5-.62-207.01,1.09-66.76,1.69-133.22,7.32-200.08,8.92-75.34,1.8-151.72,2.31-226.92-1-39.78-1.75-79.28-5.08-119.03-6.97-71.9-3.41-139.51.19-211.02,4-18.15.97-36.38,1.38-54.5,2.51,0,1.23,22.12.36,24.55.46,61.39,2.38,125.66,7.43,186.95,13.05,77.23,7.07,147.58,19.03,226.05,20.95,83.75,2.05,169.5,3.09,252.95-4.96,43.42-4.19,86.61-11.42,130.01-15.99,30.59-3.22,61.38-4.99,91.99-8.01,40.39-3.98,81.52-10.47,122.02-12,1.22-.05,3.72.75,3.48-.99ZM1551.99,1114.01c-90.52.84-181.34-5.37-271.37,5.11-25.9,3.02-51.43,8.45-77.27,11.73-81.28,10.33-166.96,9.78-248.82,7.1-80.75-2.64-155.18-20.1-235.03-22.97-56.87-2.04-114.26-.44-171.05,1.97-2.13.09-4.06.96-5.97,1.03-2.09.08-19.5-.47-19.5.51,54.68,1.32,109.16,6.82,163.37,13.64,39.05,4.91,78.29,10.3,116.83,18.17,51.44,10.5,93.03,18.41,146.27,20.73,71.14,3.1,152.24,2.86,222.92-5.17,46.44-5.27,91.55-17.4,137.44-25.56,50-8.89,102.05-14.66,152.69-19.31,28.6-2.63,57.31-4.84,86.01-6.01,1.22-.05,3.72.76,3.49-.99ZM1541.99,1155.01c-83.07-1.63-165.94-7.18-248.34,6.15-44.24,7.15-86.46,20.84-131.3,26.7-80.15,10.47-178.48,10.6-258.73,1.02-52.38-6.25-100.45-23.5-152.25-29.75-26.94-3.25-53.8-4.22-80.92-5.08-2.37-.08-4.55-1.02-6.92-1.08-46.64.04-93.19-.69-139.55,3.54,42.25-.65,82.64,3.05,124.2,9.81,34.45,5.61,70.77,11.83,104.83,19.17,49.1,10.58,93.09,28.52,143.63,35.37,73.53,9.96,160.88,10.2,234.85,3.14,76.43-7.29,141.23-34.3,215.32-47.68,39.77-7.18,82.4-12.57,122.69-16.31,22.91-2.12,46.01-3.72,69.01-4l3.48-.99ZM1526,1190.99c-.38-1.82-1.97-1.86-3.46-2.03-11.89-1.34-30.28-.72-43-1-66.76-1.51-125.81-.27-190.76,17.33-22.66,6.14-43.77,15.12-66.02,21.98-110.1,33.96-276.18,33.67-386.53,1-26.12-7.73-50.49-17.56-77.42-23.58-60.73-13.59-127.35-12.05-189.36-9.72-2.13.08-4.06.97-5.97,1.03-2.22.08-21.5-.57-21.5.51,66.91-.85,132.01,11.33,195.78,30.23,55.98,16.59,107.84,40.5,166.02,49.98,97.53,15.89,234.47,13.26,327.73-20.69,58.19-21.18,102.82-40.34,165.3-51.7,42.36-7.71,86.09-12.6,129.18-13.32ZM1464.99,1229.01c-52.11,2.01-104.74,3.34-155.21,17.27-39.93,11.03-76.06,31.65-115.79,43.21-98.56,28.69-239.5,27.35-337.76-2.23-27.04-8.14-52.8-19.85-79.71-28.29-48.95-15.34-102.95-22.74-154.03-27.97-2.33-.24-25.5-2.79-25.5-1.51,29.64,2.46,55.57,16.92,82.76,27.25,31.23,11.87,63.33,21.84,94.77,33.23,34.97,12.67,67.7,27.6,104.06,36.94,102.82,26.42,248.59,23.71,347.39-16.45,66.32-26.96,127.87-62.93,200.84-74.16l38.18-7.3ZM1548.99,1258.01c-42.83.6-85.89-.05-128.35,6.13-49.93,7.27-100.65,22.58-146.32,43.68-15.75,7.28-30.83,16.24-46.65,23.35-103.28,46.43-247.96,48.66-355.67,16.32-31.57-9.48-60.17-23.69-90.75-35.25-55.5-20.97-121.1-36.42-179.92-45.08-1.98-.29-21.35-3.2-21.34-1.67,48.72,5.33,90.62,31.15,134.33,50.68,80.58,36,158.09,74.27,247.3,83.7,69.1,7.31,147.72,3.52,214.38-16.38,56.71-16.93,104.67-50.44,159.04-72.96,63.66-26.37,141.35-48.93,210.48-51.53,1.21-.05,3.72.75,3.48-.99ZM1491.99,1300.01c-67.77,6.06-135.55,22.82-197.35,51.13-27.22,12.47-52.67,28.77-79.96,41.04-104.74,47.08-239.1,49.04-347.2,11.84-31.76-10.93-60.33-26.7-90.8-40.2-47.4-20.99-96.83-37.06-146.68-51.32-10.22-2.92-22.74-7.26-32.95-9.06-.98-.17-4.04-1.09-4.06.05,44.68,12.19,81.46,40.69,121.34,62.67,131.25,72.36,249.56,119.21,403.7,90.35,130.66-24.46,217.04-123.68,346.16-150.84l27.81-5.67Z"/>
  <g>
    <path d="M1542.99,768.01l-33.5,3.98c-68.26,5.21-131.24,1.22-196.26-20.72-28.84-9.73-55.65-24.12-83.98-35.02-107.17-41.24-258.3-49.29-366.77-9.27-33,12.18-57.99,33.25-90.23,45.77-78,30.29-162.77,26.47-244.26,14.75l50.55.54c64.38-1.63,129.41-16.59,188.13-42.87,29.78-13.32,54.15-33.78,83.65-46.35,109.08-46.45,276.14-39.65,384.35,7,46.74,20.15,86.91,43.58,136.56,59.44,56.14,17.93,112.73,25.68,171.76,22.74Z"/>
    <path d="M1548.99,1258.01c.23,1.74-2.27.94-3.48.99-69.13,2.6-146.82,25.16-210.48,51.53-54.36,22.52-102.32,56.03-159.04,72.96-66.66,19.9-145.27,23.69-214.38,16.38-89.21-9.43-166.72-47.7-247.3-83.7-43.71-19.53-85.61-45.34-134.33-50.68,0-1.53,19.36,1.37,21.34,1.67,58.82,8.66,124.42,24.11,179.92,45.08,30.58,11.56,59.18,25.77,90.75,35.25,107.71,32.34,252.39,30.11,355.67-16.32,15.82-7.11,30.9-16.07,46.65-23.35,45.66-21.1,96.39-36.41,146.32-43.68,42.46-6.18,85.52-5.54,128.35-6.13Z"/>
    <path d="M1525,807.01l-33.64,5.85c-59.83,8.94-119.13,6.87-177.12-10.59-36.68-11.05-70.42-29.77-107.24-40.76-102.49-30.59-258.69-34.56-359.24,3.75-26.88,10.24-49.02,25.93-77.23,34.77-73.91,23.15-151.08,19.65-226.53,6.48,0-1.97,22.34.52,24.47.54,71.35.86,143.61-12.36,209.51-39.57,26.99-11.15,50.04-27.62,77.51-37.49,104.49-37.53,268.91-32.27,372.77,6.27,23.51,8.72,45.6,20.72,68.79,30.21,71.78,29.41,149.9,46.47,227.96,40.54Z"/>
    <path d="M1542,845.01l-40.64,6.85c-65.05,9.89-130.56,11.85-194.57-5.14-28.37-7.53-54.85-19.77-82.79-28.21-97.11-29.34-250.44-32.85-349.19-10.19-46.51,10.67-80.89,34.11-129.63,42.37-69.01,11.7-137.56,5.2-206.2-5.19,0-1.94,21.32.49,23.47.54,64.99,1.63,141.18-8.6,203.31-27.77,41.36-12.77,72.35-34.01,116.22-43.78,92.56-20.6,227.5-17.9,319.43,5.59,42.6,10.89,80.49,31.23,122.58,43.42,70.4,20.39,144.81,27.53,217.99,21.51Z"/>
    <path d="M1545.99,921.01l-99.5,12.99-59.95,4.05h-27.09c-66.17-.08-128.62-21.74-193.96-28.04-34.17-3.29-67.81-3.33-102.04-3.96-69.66-1.29-148-2.64-216.48,10.44-18.86,3.6-36.72,10.28-55.64,13.36-40.32,6.55-82.22,5.88-122.84,4.18-45.4-1.9-90.49-7.72-135.5-13.51l83.55-.46c2.37-.07,4.55-.99,6.92-1.08,55.88-2.2,129.16-6.17,182.54-21.46,35.46-10.16,60.74-18.11,98.51-21.49,74.62-6.68,169.24-5.97,243.98,0,68.77,5.5,131.69,28.13,200.15,36.85,57.38,7.31,123.03,10.93,180.91,9.19,5.33-.16,10.86-1.88,16.45-1.04Z"/>
    <path d="M1545.99,960.01l-96.5,10.99c-51.09,4.48-102.73,8.55-153.98,4.99-29.5-2.05-58.6-8.22-88.02-10.98s-58.02-3.2-87.04-3.96c-83.21-2.2-174.34-4.36-256.95,2.97-26.25,2.33-51.81,8.95-78.02,10.98-47.32,3.67-94.78,1.33-141.99-2.99-42.24-3.87-84.37-10.02-126.51-14.5l117.55.54c2.37-.05,4.55-1.02,6.92-1.08,45.46-1.27,92.78-3.04,137.91-9.09,22.37-3,43.27-9.17,65.29-12.71,33.33-5.35,66.22-6.17,99.87-7.13,88.74-2.51,190.32-5.29,277.79,8.13,74.06,11.36,145.6,23.21,221.13,22.87l102.54.97Z"/>
    <path d="M1531.99,885.01l-42.5,5.98c-54.81,5.51-108,8.92-162.85,1.87-54.6-7.02-103.93-26.98-158.28-34.72-73.49-10.45-160.83-11.04-234.85-5.13-48.06,3.83-79.89,11.81-124.74,27.26-49.18,16.95-122.48,17.81-174.27,13.72-39.02-3.08-77.67-10.18-116.52-14.49l94.55,1.54c50.88-2.84,102.46-6.36,152.28-17.72,35.37-8.07,64.9-25.13,99.99-33.01,89.69-20.13,229.64-18.4,320.21-1.83,53.06,9.7,100.96,32.13,153.79,43.21,63,13.21,128.93,16.13,193.18,13.32Z"/>
    <path d="M1491.99,1300.01l-27.81,5.67c-129.12,27.16-215.5,126.38-346.16,150.84-154.14,28.86-272.45-17.99-403.7-90.35-39.88-21.99-76.66-50.48-121.34-62.67.02-1.14,3.09-.23,4.06-.05,10.21,1.8,22.73,6.13,32.95,9.06,49.85,14.26,99.28,30.33,146.68,51.32,30.48,13.5,59.05,29.27,90.8,40.2,108.1,37.2,242.45,35.24,347.2-11.84,27.3-12.27,52.74-28.57,79.96-41.04,61.8-28.31,129.59-45.07,197.35-51.13Z"/>
    <path d="M1474.99,729.01c.23,1.75-2.27.94-3.48.99-18.56.76-40.35-1.74-58.87-4.14-25.42-3.3-52.14-8.92-76.64-16.36-45.8-13.92-85.22-39.62-129.75-56.25-108.69-40.59-255.97-45.9-361.27,7.23-24.9,12.56-45.74,30.6-71.3,42.7-66.42,31.42-145.18,39.19-217.69,30.32,21.52-.58,42.99-.74,64.37-3.64,56.55-7.67,114.22-33.93,162.56-63.44,23.41-14.29,43.61-31.39,68.72-43.28,106.35-50.33,247.32-44.49,355.61-2.89,49.51,19.02,94.34,49.24,142.39,71.61,39.26,18.27,81.73,34.44,125.35,37.15Z"/>
    <path d="M1548.99,1034.01l-114.5,13.99c-169.08,17.76-338.98,18.41-508.95,15.96-60.24-.87-119.98-1.72-180.03-5.97-76.53-5.42-152.2-17.74-228.52-24.49l1032.01.51Z"/>
    <path d="M1541.99,1155.01l-3.48.99c-23,.29-46.1,1.88-69.01,4-40.29,3.74-82.92,9.13-122.69,16.31-74.09,13.38-138.89,40.39-215.32,47.68-73.98,7.06-161.33,6.83-234.85-3.14-50.54-6.85-94.53-24.79-143.63-35.37-34.06-7.34-70.38-13.56-104.83-19.17-41.56-6.77-81.94-10.47-124.2-9.81,46.37-4.23,92.92-3.5,139.55-3.54,2.37.06,4.55,1.01,6.92,1.08,27.11.86,53.98,1.83,80.92,5.08,51.8,6.25,99.87,23.5,152.25,29.75,80.25,9.58,178.58,9.46,258.73-1.02,44.84-5.86,87.06-19.55,131.3-26.7,82.4-13.32,165.27-7.78,248.34-6.15Z"/>
    <path d="M1526,1190.99c-43.1.72-86.83,5.62-129.18,13.32-62.48,11.37-107.11,30.52-165.3,51.7-93.26,33.95-230.2,36.58-327.73,20.69-58.18-9.48-110.04-33.38-166.02-49.98-63.77-18.9-128.86-31.08-195.78-30.23,0-1.08,19.28-.43,21.5-.51,1.91-.07,3.84-.95,5.97-1.03,62.01-2.33,128.63-3.86,189.36,9.72,26.93,6.03,51.3,15.85,77.42,23.58,110.36,32.67,276.44,32.96,386.53-1,22.25-6.86,43.35-15.84,66.02-21.98,64.95-17.6,124-18.84,190.76-17.33,12.71.29,31.1-.33,43,1,1.5.17,3.09.21,3.46,2.03Z"/>
    <path d="M1525.99,998.01l-50.64,7.85c-130.47,20.12-261.74,7.25-392.81,6.09-83.34-.74-166.92.46-250.09,3.01-69.12,2.12-131.91,2.2-200.95-4.97-29.97-3.11-59.79-7.88-89.52-12.49l125.55-1.46c2.37-.06,4.55-1.01,6.92-1.08,53.96-1.6,102.53-4.86,156.05-9.95,94.41-8.99,197.79-5.75,292.95-3.96,89.43,1.68,177.74,11.79,267,15l135.54,1.97Z"/>
    <path d="M1550.99,1075.01c.24,1.74-2.27.94-3.48.99-40.5,1.53-81.63,8.02-122.02,12-30.61,3.02-61.4,4.79-91.99,8.01-43.4,4.57-86.59,11.8-130.01,15.99-83.45,8.05-169.2,7.01-252.95,4.96-78.46-1.92-148.82-13.88-226.05-20.95-61.3-5.61-125.56-10.67-186.95-13.05-2.43-.09-24.55.77-24.55-.46,18.12-1.13,36.35-1.54,54.5-2.51,71.51-3.81,139.12-7.41,211.02-4,39.75,1.89,79.26,5.22,119.03,6.97,75.2,3.31,151.58,2.8,226.92,1,66.87-1.6,133.32-7.22,200.08-8.92,67.51-1.71,139.51-3.37,207.01-1.09,6.29.21,12.88,1.9,19.45,1.06Z"/>
    <path d="M1551.99,1114.01c.23,1.74-2.27.94-3.49.99-28.7,1.17-57.41,3.38-86.01,6.01-50.64,4.65-102.69,10.42-152.69,19.31-45.89,8.16-90.99,20.29-137.44,25.56-70.68,8.02-151.77,8.26-222.92,5.17-53.24-2.32-94.82-10.23-146.27-20.73-38.54-7.87-77.78-13.26-116.83-18.17-54.21-6.82-108.69-12.32-163.37-13.64,0-.98,17.41-.43,19.5-.51,1.91-.07,3.84-.94,5.97-1.03,56.79-2.41,114.18-4.01,171.05-1.97,79.85,2.87,154.28,20.33,235.03,22.97,81.86,2.68,167.54,3.23,248.82-7.1,25.84-3.29,51.37-8.72,77.27-11.73,90.03-10.49,180.85-4.28,271.37-5.11Z"/>
    <path d="M1464.99,1229.01l-38.18,7.3c-72.97,11.22-134.53,47.2-200.84,74.16-98.8,40.16-244.57,42.87-347.39,16.45-36.36-9.34-69.09-24.27-104.06-36.94-31.43-11.39-63.54-21.36-94.77-33.23-27.19-10.33-53.12-24.79-82.76-27.25,0-1.28,23.18,1.27,25.5,1.51,51.08,5.23,105.07,12.63,154.03,27.97,26.92,8.44,52.68,20.15,79.71,28.29,98.26,29.58,239.21,30.92,337.76,2.23,39.72-11.56,75.86-32.19,115.79-43.21,50.47-13.94,103.1-15.27,155.21-17.27Z"/>
  </g>
</svg>