<?xml version="1.0" encoding="UTF-8"?>
<svg id="Layer_1_copy" xmlns="http://www.w3.org/2000/svg" version="1.1" viewBox="0 0 2048 2048">
  <!-- Generator: Adobe Illustrator 30.0.0, SVG Export Plug-In . SVG Version: 2.1.1 Build 123)  -->
  <defs>
    <style>
      .st0 {
        fill: #fff;
      }
    </style>
  </defs>
  <path class="st0" d="M2048,0v2048H0V0h2048ZM1844.99,780.01c-13.16-.25-26.37.29-39.54.03-2.62-.05-5.06-1.04-7.91-1.09-143.26-2.22-286.69,2.26-428.91-16.09-62.49-8.06-124.27-21.63-187.15-26.85-86.62-7.19-173.28-2.13-260.03-.05-110.47,2.65-214.88-.91-324.92-6-22.85-1.06-45.71-1.84-68.54-2.95l187.5,24.98c176.72,25.01,352.73-4.08,529.98,14.02,43.12,4.4,85.8,12.21,129.01,15.99,141.37,12.34,283.65,1.53,424.95-1.04,13.98-.25,28.09.61,42.05.04,1.22-.05,3.72.75,3.48-.99ZM1858.99,840.01c-50.16-.46-100.36-.34-150.54-.97-102.45-1.29-205.9-1.52-307.95-12.05-67.85-7-134.98-20.39-203.02-25.98-120.2-9.88-240.63,2.3-361.03-1.97-82.33-2.92-164.48-13.33-247-17-110.25-4.9-221.39-3-331.92-2-27.84.25-55.71-.28-83.54-.03-.23,1.74,2.27.94,3.48.99,20.48.84,41.49-.38,62.05-.04,2.36.04,4.55,1.04,6.92,1.08,131.64,2.23,268.1,4.52,398.92,19.08,61.82,6.88,122.96,18.42,185.14,22.86,110.87,7.92,222.04-2.36,333,1,86.66,2.62,170.67,15.89,256.98,20.02,126.77,6.06,253.93-.23,381.05-2.97,2.37-.05,4.55-1.03,6.92-1.08,15.65-.32,31.43.68,47.05.04,1.22-.05,3.72.75,3.48-.99ZM1873.99,900.01c-87.23.49-174.39-1.96-261.54-1.97-119.82,2.38-237.33-15.48-355.97-28.03-165.13-17.48-330.67,2.17-495.99-14.01-18.67-1.83-37.34-5.14-56.01-6.99-144.14-14.27-289.21-10.35-433.95-8.97-26.5.25-53.04-.28-79.54-.03-.23,1.74,2.27.94,3.48.99,17.28.71,34.74-.38,52.05-.04,2.37.05,4.55,1.03,6.92,1.08,122.13,2.47,246.39,4.32,368.04,15.96,82.84,7.93,163.82,26.84,247.02,31.98,101.9,6.3,203.97-3.6,305.95-.95,91.88,2.39,181.47,15.39,273.08,17.92,124.4,3.43,248.85-2.06,373-4.92,2.37-.05,4.55-1.03,6.92-1.08,14.32-.31,28.75.63,43.05.04,1.22-.05,3.72.75,3.48-.99ZM1842.99,961.01c-7.81.91-15.98-.83-23.45-1.05-108.79-3.19-217.4.51-326.08-4.92-103.2-5.15-205.03-23.96-307.92-28.08-97.32-3.9-194.47,3.6-292.08,1.08-92.95-2.4-182.66-20.75-274.97-26.03-120.64-6.91-244.06-3.41-364.95-1.97-21.17.25-42.38-.28-63.54-.03-.23,1.74,2.27.94,3.48.99,16.62.68,33.41-.39,50.05-.04,2.37.05,4.55,1.03,6.92,1.08,121.87,2.58,248.91,3.86,370.03,15.97,87.04,8.7,170.27,30.43,258.02,35.98,110.51,7,221.15-4.33,331.95-.95,70.84,2.16,141.25,9.88,212.08,12.92,75.4,3.23,150.53,1.5,225.92,0,11.35-.23,22.73.22,34.08.08l79.92-3.08c25.6-.85,51.49.09,77.05-.96,1.22-.05,3.72.75,3.48-.99ZM1892.99,1020.01c-55.15-.47-110.37.58-165.54.03-109.02-1.09-221.29-2.37-329.95-12.05-46.39-4.13-92.59-11.33-139.01-14.99-139.41-10.98-279.59,6.32-418.98-5.02-43.1-3.51-85.37-11.43-128.15-16.85-134.46-17.02-272.42-12.17-407.82-11.1-31.84.25-63.71-.28-95.54-.03l19.45,2.03c132.73,3.98,267.83,3.37,400.03,16.97,78.22,8.04,153.01,29.02,231.01,35.99,125.88,11.24,251.17-4.48,377,0,71.35,2.53,142.45,10.08,214.03,11.97,127.67,3.37,255.27-2.64,383-4.92,2.37-.04,4.55-1.05,6.92-1.08,16.64-.25,33.44.72,50.05.04,1.22-.05,3.72.75,3.48-.99ZM1846.99,1081.01l-269.54-3.97c-115.69-.35-230.6-18.6-345.95-24.05-134.74-6.37-269.1,10.23-404-4-49.24-5.19-97.77-15.77-147.01-20.99-117.8-12.48-240.49-10.04-358.95-8.96-45.85.42-91.7.67-137.54.97l3.48.99,138.05,1.96c119.69,6.26,240.88,5.97,359.79,24.21,44.07,6.76,87.23,18.16,131.31,24.69,147.62,21.87,291.22-.52,438.82,4.18,54.03,1.72,107.92,6.68,162.03,8.97,126.45,5.35,250.89-.64,376.97-3.05,16.31-.31,32.76.71,49.05.04,1.22-.05,3.72.75,3.48-.99ZM1886.99,1140.01c-42.49-.36-85.03.43-127.54.03-125.18-1.18-250.21-4.04-374.95-15.05-25-2.21-50-5.88-75.01-7.99-164.43-13.89-326.74,12.78-489.87-7.13-35.28-4.31-70.14-11.7-105.29-16.71-130.99-18.63-265.68-14.46-397.79-13.13-33.55.34-67.13-.69-100.54.97-.23,1.74,2.27.94,3.48.99,30.23,1.24,60.79-.08,91.05.96,109.73,4.59,220.31,5.64,329.83,18.17,80,9.15,157.11,31.45,237.13,38.87,110.74,10.27,222.03-3.89,333.04-4.95,79.21-.76,157.77,7.78,237,9.92,124.6,3.36,249.42-.66,374-2.92,2.37-.04,4.55-1.04,6.92-1.08,18.3-.31,36.78.79,55.05.04,1.22-.05,3.72.75,3.48-.99ZM1827.99,1201.01l-154.54-1.97c-127.14.42-253.36-14.22-379.97-24.03-120.6-9.35-237.63,5.83-357.95,2.95-74.49-1.78-134.56-12.02-207.21-22.79-141.9-21.05-286.56-16.39-429.79-15.13-32.16.28-64.53-1.1-96.54.97-.23,1.74,2.27.94,3.48.99,16.62.68,33.41-.38,50.05-.04,129.2,2.61,264.56,4.89,392.83,20.17,74.88,8.92,146.74,30.13,221.13,37.87,104.31,10.85,205.99-1.74,310.04-4.95,86.54-2.68,168.88,5.87,255,8.92,115.72,4.1,231.26-.08,346.92-2,14.31-.24,28.76.63,43.05.04,1.22-.05,3.72.75,3.48-.99ZM1866.99,1260.01l-151.54.03c-95.88-3.48-192.1-4.17-287.95-12.05-42.44-3.49-84.65-10.08-127.01-13.99-82.99-7.65-157.5-1.93-240.04,1.95-60.85,2.86-121.07,5.49-181.95,1.03-71.8-5.26-141.51-22.91-213.02-29.98-129.38-12.8-269.49-8.86-400.04-7.06-2.85.04-5.29,1.05-7.91,1.09-15.17.25-30.38-.28-45.54-.03-.23,1.74,2.27.94,3.48.99,14.29.59,28.74-.28,43.05-.04,2.36.04,4.55,1.03,6.92,1.08,123.01,2.51,250.62,3.47,372.92,17.08,86.24,9.6,169.12,35,255.13,41.87,103.3,8.24,200.61-6.59,303.03-9.95,75.17-2.46,147.07,7.41,221.95,10.97,130.5,6.2,262.27,1.45,393.05-.97,2.37-.04,4.55-1.05,6.92-1.08,14.98-.23,30.1.66,45.05.04,1.22-.05,3.72.75,3.48-.99ZM1432.99,1309.01c-55.82-2.67-110.91-13.89-166.5-19.01-82.59-7.61-161.72,3.18-243.99,7.01-53.71,2.5-106.27,3.31-160-2.02-69.43-6.89-136.82-24.03-207.02-29.98-127.84-10.83-268.3-7.85-397.03-5.05-2.36.05-4.55,1.02-6.92,1.08-8.83.25-17.72-.28-26.54-.03-.23,1.74,2.27.94,3.48.99,15.62.64,31.41-.3,47.05-.04,124.25,2.02,255.4,4.81,378.83,19.17,94.45,10.99,185.66,39.59,281.08,42.92,65.38,2.28,128.29-7.09,193.05-12.03,95.11-7.26,189.88-4.91,284.95-1.97,5.15.16,10.91.17,16.05-.04,1.22-.05,3.72.75,3.48-.99Z"/>
  <g>
    <path d="M1873.99,900.01c.23,1.74-2.27.94-3.48.99-14.3.59-28.74-.35-43.05-.04-2.37.05-4.55,1.03-6.92,1.08-124.15,2.86-248.6,8.35-373,4.92-91.61-2.53-181.2-15.53-273.08-17.92-101.98-2.65-204.05,7.25-305.95.95-83.2-5.14-164.18-24.05-247.02-31.98-121.64-11.65-245.9-13.5-368.04-15.96-2.37-.05-4.55-1.04-6.92-1.08-17.31-.34-34.77.75-52.05.04-1.22-.05-3.72.75-3.48-.99,26.49-.25,53.03.28,79.54.03,144.74-1.38,289.81-5.3,433.95,8.97,18.67,1.85,37.34,5.16,56.01,6.99,165.31,16.18,330.85-3.46,495.99,14.01,118.64,12.56,236.15,30.42,355.97,28.03,87.15,0,174.3,2.45,261.54,1.97Z"/>
    <path d="M1858.99,840.01c.23,1.74-2.27.94-3.48.99-15.63.64-31.41-.36-47.05-.04-2.37.05-4.55,1.03-6.92,1.08-127.12,2.74-254.28,9.03-381.05,2.97-86.31-4.13-170.32-17.4-256.98-20.02-110.96-3.36-222.13,6.92-333-1-62.18-4.44-123.32-15.98-185.14-22.86-130.81-14.57-267.28-16.86-398.92-19.08-2.36-.04-4.55-1.04-6.92-1.08-20.56-.33-41.57.88-62.05.04-1.22-.05-3.72.75-3.48-.99,27.83-.25,55.7.28,83.54.03,110.53-1,221.67-2.9,331.92,2,82.52,3.67,164.67,14.08,247,17,120.4,4.27,240.84-7.91,361.03,1.97,68.04,5.59,135.16,18.98,203.02,25.98,102.05,10.53,205.5,10.76,307.95,12.05,50.17.63,100.37.51,150.54.97Z"/>
    <path d="M1842.99,961.01c.23,1.74-2.27.94-3.48.99-25.56,1.05-51.45.11-77.05.96l-79.92,3.08c-11.35.14-22.73-.31-34.08-.08-75.38,1.5-150.52,3.23-225.92,0-70.84-3.04-141.24-10.76-212.08-12.92-110.8-3.38-221.44,7.94-331.95.95-87.75-5.56-170.98-27.28-258.02-35.98-121.12-12.11-248.16-13.39-370.03-15.97-2.37-.05-4.55-1.03-6.92-1.08-16.64-.35-33.43.72-50.05.04-1.22-.05-3.72.75-3.48-.99,21.16-.25,42.37.28,63.54.03,120.89-1.45,244.31-4.94,364.95,1.97,92.31,5.29,182.02,23.64,274.97,26.03,97.61,2.52,194.76-4.98,292.08-1.08,102.89,4.12,204.72,22.93,307.92,28.08,108.68,5.42,217.3,1.72,326.08,4.92,7.47.22,15.65,1.96,23.45,1.05Z"/>
    <path d="M1892.99,1020.01c.23,1.74-2.27.94-3.48.99-16.61.68-33.41-.29-50.05-.04-2.36.04-4.55,1.04-6.92,1.08-127.73,2.28-255.33,8.29-383,4.92-71.58-1.89-142.68-9.43-214.03-11.97-125.84-4.47-251.12,11.24-377,0-78-6.96-152.8-27.94-231.01-35.99-132.21-13.59-267.3-12.99-400.03-16.97l-19.45-2.03c31.83-.25,63.7.28,95.54.03,135.4-1.07,273.36-5.92,407.82,11.1,42.78,5.42,85.05,13.34,128.15,16.85,139.4,11.34,279.58-5.96,418.98,5.02,46.43,3.66,92.62,10.85,139.01,14.99,108.66,9.68,220.94,10.96,329.95,12.05,55.16.55,110.38-.5,165.54-.03Z"/>
    <path d="M1846.99,1081.01c.23,1.74-2.27.94-3.48.99-16.29.67-32.74-.35-49.05-.04-126.07,2.42-250.52,8.4-376.97,3.05-54.11-2.29-108-7.25-162.03-8.97-147.59-4.7-291.2,17.69-438.82-4.18-44.08-6.53-87.24-17.93-131.31-24.69-118.91-18.24-240.1-17.95-359.79-24.21l-138.05-1.96-3.48-.99c45.84-.3,91.68-.55,137.54-.97,118.46-1.08,241.16-3.52,358.95,8.96,49.25,5.22,97.78,15.79,147.01,20.99,134.9,14.23,269.26-2.37,404,4,115.35,5.45,230.26,23.7,345.95,24.05l269.54,3.97Z"/>
    <path d="M1886.99,1140.01c.23,1.74-2.27.94-3.48.99-18.28.75-36.75-.35-55.05-.04-2.36.04-4.55,1.04-6.92,1.08-124.58,2.26-249.4,6.27-374,2.92-79.23-2.13-157.79-10.68-237-9.92-111.01,1.07-222.29,15.23-333.04,4.95-80.02-7.42-157.13-29.72-237.13-38.87-109.52-12.53-220.11-13.58-329.83-18.17-30.26-1.04-60.82.28-91.05-.96-1.22-.05-3.72.75-3.48-.99,33.41-1.66,66.99-.63,100.54-.97,132.12-1.34,266.81-5.51,397.79,13.13,35.16,5,70.02,12.4,105.29,16.71,163.13,19.92,325.43-6.76,489.87,7.13,25.01,2.11,50.01,5.78,75.01,7.99,124.74,11,249.78,13.86,374.95,15.05,42.5.4,85.05-.39,127.54-.03Z"/>
    <path d="M1827.99,1201.01c.23,1.74-2.27.94-3.48.99-14.29.59-28.74-.28-43.05-.04-115.65,1.92-231.19,6.1-346.92,2-86.12-3.05-168.46-11.59-255-8.92-104.04,3.22-205.73,15.8-310.04,4.95-74.39-7.74-146.25-28.95-221.13-37.87-128.28-15.28-263.63-17.56-392.83-20.17-16.64-.34-33.43.72-50.05.04-1.22-.05-3.72.75-3.48-.99,32.01-2.07,64.38-.68,96.54-.97,143.23-1.26,287.89-5.92,429.79,15.13,72.64,10.78,132.72,21.01,207.21,22.79,120.32,2.88,237.35-12.3,357.95-2.95,126.6,9.81,252.83,24.46,379.97,24.03l154.54,1.97Z"/>
    <path d="M1866.99,1260.01c.23,1.74-2.27.94-3.48.99-14.95.61-30.07-.28-45.05-.04-2.36.04-4.55,1.04-6.92,1.08-130.78,2.42-262.55,7.17-393.05.97-74.88-3.56-146.78-13.43-221.95-10.97-102.42,3.35-199.73,18.19-303.03,9.95-86.01-6.86-168.89-32.27-255.13-41.87-122.3-13.61-249.91-14.58-372.92-17.08-2.37-.05-4.55-1.04-6.92-1.08-14.31-.24-28.76.63-43.05.04-1.22-.05-3.72.75-3.48-.99,15.16-.25,30.37.28,45.54.03,2.62-.04,5.06-1.05,7.91-1.09,130.55-1.8,270.66-5.74,400.04,7.06,71.51,7.08,141.22,24.72,213.02,29.98,60.88,4.46,121.1,1.83,181.95-1.03,82.54-3.88,157.04-9.61,240.04-1.95,42.37,3.91,84.57,10.5,127.01,13.99,95.85,7.88,192.07,8.57,287.95,12.05l151.54-.03Z"/>
    <path d="M1844.99,780.01c.23,1.74-2.27.94-3.48.99-13.96.57-28.07-.3-42.05-.04-141.3,2.57-283.58,13.37-424.95,1.04-43.21-3.77-85.9-11.58-129.01-15.99-177.25-18.1-353.26,10.99-529.98-14.02l-187.5-24.98c22.83,1.11,45.69,1.89,68.54,2.95,110.04,5.09,214.45,8.65,324.92,6,86.75-2.08,173.41-7.14,260.03.05,62.88,5.22,124.66,18.79,187.15,26.85,142.22,18.35,285.65,13.88,428.91,16.09,2.85.04,5.29,1.04,7.91,1.09,13.16.25,26.38-.28,39.54-.03Z"/>
    <path d="M1432.99,1309.01c.23,1.74-2.27.94-3.48.99-5.14.21-10.9.2-16.05.04-95.06-2.94-189.84-5.29-284.95,1.97-64.76,4.95-127.67,14.31-193.05,12.03-95.43-3.32-186.63-31.93-281.08-42.92-123.44-14.36-254.58-17.15-378.83-19.17-15.64-.25-31.43.68-47.05.04-1.22-.05-3.72.75-3.48-.99,8.82-.24,17.71.28,26.54.03,2.37-.07,4.55-1.03,6.92-1.08,128.74-2.8,269.19-5.78,397.03,5.05,70.2,5.95,137.58,23.09,207.02,29.98,53.73,5.33,106.29,4.52,160,2.02,82.26-3.83,161.4-14.61,243.99-7.01,55.59,5.12,110.68,16.34,166.5,19.01Z"/>
  </g>
</svg>